<svg width="15" height="15" viewBox="0 0 15 15" fill="none" xmlns="http://www.w3.org/2000/svg">
<path d="M12.7734 1.6875H10.5762V1.26562C10.5762 0.567759 9.98476 0 9.25781 0H5.74219C5.01524 0 4.42383 0.567759 4.42383 1.26562V1.6875H2.22656C1.49962 1.6875 0.908203 2.25526 0.908203 2.95312C0.908203 3.5136 1.28979 3.98984 1.81655 4.15578L2.60039 13.2394C2.65685 13.8902 3.23394 14.4 3.91418 14.4H11.0858C11.7661 14.4 12.3432 13.8902 12.3997 13.2393L13.1834 4.15575C13.7102 3.98984 14.0918 3.5136 14.0918 2.95312C14.0918 2.25526 13.5004 1.6875 12.7734 1.6875ZM5.30273 1.26562C5.30273 1.033 5.49987 0.84375 5.74219 0.84375H9.25781C9.50013 0.84375 9.69727 1.033 9.69727 1.26562V1.6875H5.30273V1.26562ZM11.5238 13.1694C11.5049 13.3863 11.3126 13.5562 11.0858 13.5562H3.91418C3.68745 13.5562 3.49509 13.3863 3.47631 13.1696L2.70393 4.21875H12.2961L11.5238 13.1694ZM12.7734 3.375H2.22656C1.98425 3.375 1.78711 3.18575 1.78711 2.95312C1.78711 2.7205 1.98425 2.53125 2.22656 2.53125H12.7734C13.0158 2.53125 13.2129 2.7205 13.2129 2.95312C13.2129 3.18575 13.0158 3.375 12.7734 3.375Z" fill="black"/>
</svg>
